<?xml version="1.0" encoding="UTF-8"?>
<svg version="1.1" viewBox="0 0 2048 675" width="892" height="294" xmlns="http://www.w3.org/2000/svg">
<path transform="translate(91,11)" d="m0 0h12l14 3 16 8 10 9 7 9 6 12 2 8 1 12v191l4-4 6-10 11-15 11-11 14-8 14-5 11-2 11-1h30l24 3 25 6 22 8 23 12 20 14 13 11 19 19 9 11 9 12 10 18 8 17 7 20 5 17 5 28 1 12v20l-3 24-6 25-7 21-8 18-9 16-10 15-10 13-11 12-13 13-23 16-19 11-25 11-22 7-28 6-10 1h-38l-22-3-27-7-16-6-22-11-14-9-14-10-11-9-12-11-9-10-12-16-10-16-11-21-8-24-5-25-1-7v-382l2-16 4-11 6-11 9-11 10-8 14-7zm148 317-15 3-17 7-11 7-14 12-8 9-10 16-6 16-4 16v19l3 16 5 15 6 12 10 14 8 8 15 11 16 8 15 5 12 2h20l16-4 16-7 16-11 11-9 11-14 7-12 5-15 3-14 1-13-2-18-5-17-9-17-10-13-9-8-13-9-16-8-14-5-12-2z" fill="#FEC326"/>
<path transform="translate(1257,12)" d="m0 0h23l13 4 11 6 10 9 8 10 6 13 1 5 1 14v282l3-3h2l2-4 89-89 8-7 12-13 13-13 11-8 12-7 7-2 13-1 14 1 10 3 15 8 10 9 6 9 5 12 2 9v15l-4 13-7 11-12 13-12 11-64 64-8 7-4 6-11 10-3 3 1 5 9 10 12 13 11 12 14 15 7 8 13 14 7 8 21 21 7 8 14 14 10 14 4 8 3 16v8l-4 14-7 13-10 11-11 8-10 5-9 3-6 1h-10l-16-4-14-8-12-11-10-10-7-8-9-10-11-12-7-8-8-8-9-11-7-7-7-8-12-13-9-11-14-15-9-11-11-12-5-5 1 18v103l-4 13-5 10-9 10-7 7-14 8-13 4h-19l-14-5-13-8-6-5-10-15-6-13-2-6-1-10v-509l4-15 9-17 8-10 10-9 13-6z" fill="#FEC326"/>
<path transform="translate(1777,207)" d="m0 0h37l20 2 22 5 26 8 25 12 15 10 12 9 14 12 16 16 10 13 10 15 14 27 11 28 6 25 2 15 1 13v19l-2 20-5 21-9 27-8 18-12 21-10 14-13 16-10 10-8 7-11 9-21 14-21 11-26 10-26 7-12 2-12 1h-29l-22-2-23-5-18-6-24-11-20-12-16-12-13-11-19-19-11-14-11-17-10-19-8-20-4-13-4-20-2-15v-41l5-32 8-27 9-21 8-14 8-12 11-14 16-17 12-11 17-13 18-11 20-11 25-9 24-6zm7 120-16 4-17 8-14 10-12 11-7 8-9 14-5 12-4 16-1 6v23l3 16 5 13 6 11 12 15 8 7 14 10 17 8 13 4 20 2 16-2 11-3 18-8 12-8 11-9 7-7 9-12 8-16 5-17 1-6v-23l-4-18-8-16-6-10-12-14-13-11-16-9-14-6-10-2-10-1z" fill="#FEC326"/>
<path transform="translate(968,207)" d="m0 0 26 1 18 4 20 8 16 8 15 10 10 8 12 11 11 14 8 13 10 19 6 17 5 19 3 18v223l-2 14-7 16-9 11-11 10-8 5-14 5-3 1h-21l-16-7-10-7-8-7-8-13-6-14-1-4-1-203-3-14-4-10-8-11-9-9-13-8-8-4-12-3-17-1-15 2-11 4-9 5-12 9-9 10-6 12-4 12-2 12-1 161-1 36-3 11-6 12-13 14-13 9-12 5-5 1h-22l-20-9-10-9-9-10-8-16-3-12v-322l5-14 8-15 7-9 8-7 14-7 7-2h23l13 4 14 9 10 10 7 11 3 9 2 13h2l8-10 9-11 9-9 15-11 19-9 19-6 11-2z" fill="#FEC326"/>
<path transform="translate(582,210)" d="m0 0h24l10 3 10 5 12 9 8 9 8 16 2 11v325l-5 15-7 12-12 12-16 10-10 4-4 1h-20l-16-7-9-6-7-7-10-14-6-12-2-12v-318l2-9 10-19 10-13 9-7 13-6z" fill="#FEC326"/>
<path transform="translate(588,22)" d="m0 0h18l15 4 16 8 12 11 8 9 8 13 4 13 1 6v18l-4 16-7 14-7 9-9 9-15 10-10 5-12 3h-16l-14-3-12-5-14-9-10-10-9-13-6-15-1-5v-23l4-15 10-19 15-16 11-7 13-6z" fill="#FEC326"/>
</svg>
